<svg width="221" height="48" viewBox="0 0 221 48" fill="none" xmlns="http://www.w3.org/2000/svg">
<path d="M46.3747 12.5944V19.5295L23.4177 6.93704V0L46.3747 12.5944Z" fill="#252552"/>
<path d="M22.9569 0V6.93697L5.96012 16.2599C5.34727 16.596 4.65745 16.7667 3.95859 16.7552C3.25972 16.7437 2.5759 16.5504 1.97443 16.1943C1.37297 15.8382 0.874607 15.3317 0.528402 14.7245C0.182197 14.1173 8.66699e-05 13.4304 0 12.7314L0 12.5943L22.9569 0Z" fill="#252552"/>
<path d="M46.3747 19.5295L31.821 27.5689L31.8132 27.5726V20.6376L40.1092 16.0927L46.3747 19.5295Z" fill="url(#paint0_linear_7_3)"/>
<path d="M0 35.4054V28.4704L22.9568 41.0628V47.9999L0 35.4054Z" fill="#252552"/>
<path d="M23.4177 47.9998V41.0629L40.4146 31.7399C41.0274 31.4039 41.7172 31.2332 42.4161 31.2447C43.115 31.2562 43.7988 31.4495 44.4002 31.8055C45.0017 32.1616 45.5001 32.6682 45.8463 33.2754C46.1925 33.8826 46.3746 34.5695 46.3747 35.2684V35.4055L23.4177 47.9998Z" fill="#252552"/>
<path d="M0 28.4704L14.5538 20.431L14.5613 20.427V27.3621L6.26553 31.9072L0 28.4704Z" fill="url(#paint1_linear_7_3)"/>
<path d="M16.2313 18.2811V29.7195L14.5613 28.7921V19.2083L16.2313 18.2811Z" fill="#252552"/>
<path d="M31.8132 19.208V28.7918L30.1414 29.7212V18.2788L31.8132 19.208Z" fill="#252552"/>
<path d="M27.9173 17.0433V30.9571L26.2455 31.8863V16.1138L27.9173 17.0433Z" fill="#252552"/>
<path d="M24.0234 14.88V33.1201L23.1874 33.5847L22.3513 33.1201V14.88L23.1874 14.4151L24.0234 14.88Z" fill="#252552"/>
<path d="M20.1273 16.1158V31.8846L18.4554 30.9551V17.045L20.1273 16.1158Z" fill="#252552"/>
<path d="M74.1486 23.3532V25.8285H62.6723V23.8595L69.8731 15.1773H62.8223V12.702H73.8673V14.671L66.6853 23.3532H74.1486Z" fill="#252552"/>
<path d="M76.0335 12.7026H79.0714V25.829H76.0335V12.7026Z" fill="#252552"/>
<path d="M82.184 12.7026H85.2219V23.3537H91.8038V25.829H82.184V12.7026Z" fill="#252552"/>
<path d="M93.5101 12.7026H96.5479V23.3537H103.13V25.829H93.5101V12.7026Z" fill="#252552"/>
<path d="M104.836 12.7026H107.874V25.829H104.836V12.7026Z" fill="#252552"/>
<path d="M113.659 25.1724C112.596 24.6141 111.707 23.7739 111.09 22.744C110.482 21.6856 110.162 20.4862 110.162 19.2654C110.162 18.0447 110.482 16.8453 111.09 15.7869C111.707 14.7571 112.596 13.9169 113.659 13.3585C114.799 12.7791 116.06 12.4772 117.339 12.4772C118.618 12.4772 119.879 12.7791 121.019 13.3585C122.089 13.9296 122.985 14.7809 123.609 15.8213C124.233 16.8617 124.563 18.0522 124.563 19.2654C124.563 20.4787 124.233 21.6692 123.609 22.7096C122.985 23.75 122.089 24.6013 121.019 25.1724C119.879 25.7517 118.618 26.0537 117.339 26.0537C116.06 26.0537 114.799 25.7517 113.659 25.1724ZM119.444 22.9315C120.063 22.5808 120.573 22.0646 120.916 21.4407C121.267 20.7694 121.45 20.023 121.45 19.2654C121.45 18.5078 121.267 17.7615 120.916 17.0902C120.573 16.4663 120.063 15.9501 119.444 15.5994C118.799 15.2487 118.077 15.065 117.344 15.065C116.61 15.065 115.888 15.2487 115.243 15.5994C114.624 15.95 114.114 16.4662 113.771 17.0902C113.42 17.7616 113.237 18.5079 113.237 19.2654C113.237 20.023 113.42 20.7693 113.771 21.4407C114.114 22.0646 114.624 22.5808 115.243 22.9315C115.888 23.2822 116.61 23.4659 117.344 23.4659C118.077 23.4659 118.799 23.2822 119.444 22.9315Z" fill="#252552"/>
<path d="M138.852 12.7026V25.829H136.358L129.814 17.8594V25.829H126.813V12.7026H129.326L135.852 20.6721V12.7026H138.852Z" fill="#252552"/>
<path d="M148.725 24.4976C147.681 23.4601 147.159 21.9787 147.159 20.0534V12.7026H150.197V19.9409C150.197 22.2914 151.172 23.4665 153.122 23.4663C154.072 23.4663 154.797 23.1819 155.297 22.6131C155.797 22.0443 156.047 21.1536 156.047 19.9409V12.7026H159.048V20.0534C159.048 21.9787 158.526 23.4601 157.482 24.4976C156.438 25.5354 154.979 26.0542 153.103 26.0541C151.228 26.0541 149.769 25.5352 148.725 24.4976Z" fill="#252552"/>
<path d="M174.087 12.7026V25.829H171.593L165.048 17.8594V25.829H162.048V12.7026H164.561L171.086 20.6721V12.7026H174.087Z" fill="#252552"/>
<path d="M177.2 12.7026H180.237V25.829H177.2V12.7026Z" fill="#252552"/>
<path d="M186.069 15.1778H181.869V12.7026H193.308V15.1778H189.107V25.829H186.069V15.1778Z" fill="#252552"/>
<path d="M205.102 23.3913V25.829H194.939V12.7026H204.859V15.1403H197.958V17.9907H204.052V20.3534H197.958V23.3913H205.102Z" fill="#252552"/>
<path d="M207.521 12.7023H213.485C214.79 12.676 216.084 12.9554 217.263 13.518C218.315 14.0243 219.2 14.8214 219.813 15.8151C220.434 16.8571 220.749 18.0528 220.723 19.2655C220.749 20.4782 220.434 21.6739 219.813 22.7159C219.2 23.7096 218.315 24.5068 217.263 25.013C216.084 25.5756 214.79 25.855 213.485 25.8287H207.521V12.7023ZM213.334 23.3347C214.647 23.3347 215.694 22.969 216.476 22.2377C217.256 21.5063 217.647 20.5156 217.647 19.2655C217.647 18.0155 217.257 17.0248 216.476 16.2933C215.694 15.5619 214.647 15.1963 213.334 15.1963H210.559V23.3347L213.334 23.3347Z" fill="#252552"/>
<path d="M62.6504 30.6728H65.1559C65.7194 30.6622 66.2775 30.7841 66.7852 31.0289C67.2431 31.2509 67.627 31.6007 67.8905 32.036C68.1482 32.4949 68.2835 33.0122 68.2835 33.5384C68.2835 34.0647 68.1482 34.582 67.8905 35.0408C67.627 35.4761 67.2431 35.8259 66.7852 36.048C66.2775 36.2927 65.7194 36.4147 65.1559 36.4041H62.6504V30.6728ZM65.1068 35.5034C65.4904 35.5116 65.8706 35.4288 66.2161 35.2619C66.5247 35.111 66.7813 34.8715 66.953 34.5741C67.1224 34.2551 67.2109 33.8995 67.2109 33.5384C67.2109 33.1772 67.1224 32.8216 66.953 32.5026C66.7811 32.2053 66.5246 31.9659 66.2161 31.8149C65.8705 31.648 65.4904 31.5653 65.1068 31.5734H63.7148V35.5034H65.1068Z" fill="#252552"/>
<path d="M69.4133 30.6729H70.4777V36.4042H69.4133V30.6729Z" fill="#252552"/>
<path d="M75.9389 33.4731H76.9459V35.7574C76.638 35.9991 76.2884 36.1823 75.9143 36.2978C75.5226 36.4231 75.1138 36.4867 74.7025 36.4861C74.1521 36.4943 73.6085 36.3634 73.1222 36.1054C72.6644 35.8626 72.282 35.4987 72.0169 35.0534C71.754 34.5918 71.6158 34.0698 71.6158 33.5386C71.6158 33.0075 71.754 32.4854 72.0169 32.0239C72.2828 31.5777 72.6668 31.2137 73.1264 30.9718C73.6169 30.7134 74.1645 30.5825 74.7189 30.591C75.1667 30.5851 75.6116 30.6657 76.0289 30.8284C76.4098 30.9783 76.7494 31.2169 77.0197 31.5244L76.3482 32.1795C76.1435 31.9681 75.8977 31.801 75.6259 31.6883C75.3541 31.5757 75.0621 31.5199 74.768 31.5244C74.3935 31.5174 74.0232 31.6047 73.6913 31.7783C73.3835 31.9415 73.128 32.1885 72.9545 32.4906C72.7736 32.8098 72.6817 33.1717 72.6884 33.5386C72.683 33.9001 72.7749 34.2564 72.9545 34.5702C73.1293 34.8735 73.3842 35.1228 73.6913 35.2908C74.0189 35.4689 74.387 35.5592 74.7598 35.5527C75.1721 35.5617 75.5793 35.4599 75.9389 35.258V33.4731Z" fill="#252552"/>
<path d="M78.3459 30.6729H79.4103V36.4042H78.3459V30.6729Z" fill="#252552"/>
<path d="M82.1203 31.5735H80.2207V30.6729H85.0841V31.5735H83.1846V36.4042H82.1203L82.1203 31.5735Z" fill="#252552"/>
<path d="M89.3171 35.0778H86.4514L85.8864 36.4042H84.7893L87.3685 30.6729H88.4166L91.0038 36.4042H89.8903L89.3171 35.0778ZM88.9651 34.2426L87.8843 31.7372L86.8116 34.2426H88.9651Z" fill="#252552"/>
<path d="M91.7324 30.6729H92.7968V35.5035H95.7935V36.4042H91.7324V30.6729Z" fill="#252552"/>
<path d="M102.646 36.4043L101.476 34.7258C101.402 34.7323 101.329 34.735 101.255 34.734H99.961V36.4043H98.8966V30.673H101.255C101.7 30.6629 102.142 30.7466 102.552 30.9185C102.899 31.0637 103.194 31.3089 103.4 31.6227C103.602 31.9492 103.705 32.3277 103.694 32.7117C103.705 33.1062 103.595 33.4946 103.379 33.8252C103.157 34.1455 102.841 34.3888 102.475 34.5211L103.793 36.4043H102.646ZM102.262 31.8683C101.954 31.6514 101.581 31.5474 101.205 31.5736H99.961V33.8579H101.205C101.582 33.8843 101.955 33.7787 102.262 33.5591C102.383 33.455 102.478 33.3244 102.541 33.1774C102.603 33.0305 102.631 32.8711 102.622 32.7117C102.631 32.5528 102.604 32.3939 102.541 32.2476C102.479 32.1012 102.383 31.9714 102.262 31.8683H102.262Z" fill="#252552"/>
<path d="M109.18 35.5117V36.4042H104.882V30.6729H109.065V31.5653H105.946V33.0555H108.713V33.9315H105.946V35.5117H109.18Z" fill="#252552"/>
<path d="M114.084 35.0778H111.219L110.654 36.4042H109.557L112.136 30.6729H113.184L115.771 36.4042H114.658L114.084 35.0778ZM113.732 34.2426L112.652 31.7372L111.579 34.2426H113.732Z" fill="#252552"/>
<path d="M116.5 30.6729H117.564V35.5035H120.561V36.4042H116.5V30.6729Z" fill="#252552"/>
<path d="M127.962 35.5117V36.4042H123.664V30.6729H127.848V31.5653H124.728V33.0555H127.496V33.9315H124.728V35.5117H127.962Z" fill="#252552"/>
<path d="M129.645 36.2978C129.288 36.2009 128.955 36.0309 128.667 35.7985L129.035 34.9715C129.295 35.1707 129.587 35.3243 129.899 35.4259C130.229 35.5414 130.576 35.6009 130.926 35.602C131.257 35.6242 131.588 35.5533 131.88 35.3972C131.976 35.3432 132.056 35.2647 132.111 35.1697C132.166 35.0748 132.195 34.9668 132.195 34.8569C132.197 34.7806 132.183 34.7048 132.152 34.6348C132.122 34.5648 132.077 34.5023 132.019 34.4516C131.89 34.3382 131.738 34.2531 131.573 34.2019C131.393 34.1419 131.147 34.0736 130.836 33.9972C130.477 33.9164 130.122 33.8125 129.776 33.686C129.507 33.5835 129.268 33.4162 129.08 33.1989C128.875 32.9463 128.772 32.6269 128.789 32.3024C128.787 31.995 128.876 31.694 129.047 31.4385C129.241 31.1615 129.512 30.9467 129.825 30.8203C130.229 30.6567 130.663 30.5787 131.098 30.5911C131.446 30.591 131.793 30.635 132.13 30.7221C132.441 30.7976 132.737 30.925 133.006 31.0987L132.67 31.9256C132.424 31.7804 132.16 31.6676 131.884 31.59C131.626 31.5157 131.359 31.4772 131.09 31.4754C130.764 31.4523 130.437 31.5263 130.153 31.6882C130.057 31.7482 129.979 31.8317 129.925 31.9306C129.872 32.0295 129.844 32.1406 129.846 32.2532C129.843 32.3289 129.858 32.4042 129.888 32.4736C129.919 32.543 129.964 32.6047 130.022 32.6543C130.152 32.7655 130.304 32.8491 130.468 32.9001C130.648 32.9602 130.894 33.0284 131.205 33.1047C131.561 33.1823 131.911 33.2849 132.253 33.4117C132.522 33.5156 132.762 33.6827 132.953 33.8989C133.157 34.1469 133.26 34.4624 133.243 34.7832C133.247 35.0893 133.157 35.3891 132.985 35.6429C132.79 35.9188 132.518 36.132 132.204 36.2569C131.798 36.4203 131.363 36.4983 130.926 36.4862C130.492 36.4873 130.06 36.4239 129.645 36.2978Z" fill="#252552"/>
<path d="M135.38 31.5735H133.481V30.6729H138.344V31.5735H136.445V36.4042H135.38V31.5735Z" fill="#252552"/>
<path d="M142.577 35.0778H139.712L139.147 36.4042H138.05L140.629 30.6729H141.677L144.264 36.4042H143.151L142.577 35.0778ZM142.226 34.2426L141.145 31.7372L140.072 34.2426H142.226Z" fill="#252552"/>
<path d="M145.869 31.5735H143.969V30.6729H148.833V31.5735H146.933V36.4042H145.869V31.5735Z" fill="#252552"/>
<path d="M153.934 35.5117V36.4042H149.635V30.6729H153.819V31.5653H150.7V33.0555H153.467V33.9315H150.7V35.5117H153.934Z" fill="#252552"/>
<path d="M162.645 36.4042L162.637 32.6051L160.754 35.7491H160.279L158.396 32.6542V36.4042H157.381V30.6729H158.257L160.533 34.4719L162.768 30.6729H163.644L163.652 36.4042H162.645Z" fill="#252552"/>
<path d="M168.917 35.0778H166.051L165.486 36.4042H164.389L166.968 30.6729H168.016L170.603 36.4042H169.49L168.917 35.0778ZM168.565 34.2426L167.484 31.7372L166.411 34.2426H168.565Z" fill="#252552"/>
<path d="M175.082 36.4043L173.911 34.7258C173.838 34.7323 173.764 34.735 173.69 34.734H172.396V36.4043H171.332V30.673H173.69C174.135 30.6629 174.577 30.7466 174.988 30.9185C175.334 31.0637 175.629 31.3089 175.835 31.6227C176.038 31.9492 176.14 32.3277 176.13 32.7117C176.14 33.1062 176.03 33.4946 175.815 33.8252C175.593 34.1455 175.277 34.3888 174.91 34.5211L176.228 36.4043H175.082ZM174.697 31.8683C174.389 31.6514 174.016 31.5474 173.641 31.5736H172.396V33.8579H173.641C174.017 33.8843 174.391 33.7787 174.697 33.5591C174.818 33.455 174.914 33.3244 174.976 33.1774C175.039 33.0305 175.067 32.8711 175.057 32.7117C175.067 32.5528 175.039 32.3939 174.977 32.2476C174.914 32.1012 174.818 31.9714 174.697 31.8683Z" fill="#252552"/>
<path d="M179.29 34.0052L178.382 34.9386V36.4042H177.317V30.6729H178.382V33.6122L181.215 30.6729H182.41L180.003 33.2356L182.557 36.4042H181.313L179.29 34.0052Z" fill="#252552"/>
<path d="M187.584 35.5117V36.4042H183.286V30.6729H187.47V31.5653H184.35V33.0555H187.118V33.9315H184.35V35.5117H187.584Z" fill="#252552"/>
<path d="M189.934 31.5735H188.035V30.6729H192.898V31.5735H190.999V36.4042H189.934V31.5735Z" fill="#252552"/>
<path d="M197.356 30.9185C197.702 31.0637 197.997 31.3089 198.204 31.6227C198.397 31.9524 198.498 32.3275 198.498 32.7096C198.498 33.0916 198.397 33.4668 198.204 33.7965C197.998 34.1122 197.703 34.359 197.356 34.5048C196.946 34.6767 196.504 34.7604 196.059 34.7504H194.765V36.4043H193.7V30.673H196.059C196.504 30.6629 196.946 30.7466 197.356 30.9185ZM197.066 33.5549C197.179 33.4459 197.27 33.3151 197.332 33.1701C197.394 33.0252 197.426 32.8692 197.426 32.7116C197.426 32.554 197.394 32.398 197.332 32.2531C197.27 32.1081 197.179 31.9772 197.066 31.8683C196.758 31.6514 196.385 31.5474 196.009 31.5736H194.765V33.8497H196.009C196.385 33.8759 196.758 33.7718 197.066 33.5549V33.5549Z" fill="#252552"/>
<path d="M199.563 30.6729H200.627V35.5035H203.624V36.4042H199.563L199.563 30.6729Z" fill="#252552"/>
<path d="M208.225 35.0778H205.36L204.795 36.4042H203.698L206.277 30.6729H207.325L209.912 36.4042H208.799L208.225 35.0778ZM207.873 34.2426L206.793 31.7372L205.72 34.2426H207.873Z" fill="#252552"/>
<path d="M211.644 36.1054C211.188 35.8623 210.809 35.4982 210.547 35.0533C210.286 34.591 210.149 34.0689 210.15 33.538C210.15 33.0071 210.289 32.4854 210.551 32.0238C210.815 31.5793 211.196 31.2155 211.652 30.9717C212.134 30.7141 212.673 30.5831 213.22 30.591C213.661 30.5854 214.098 30.669 214.505 30.8367C214.884 30.994 215.221 31.2379 215.488 31.5489L214.8 32.1958C214.608 31.9803 214.372 31.8088 214.108 31.693C213.844 31.5771 213.558 31.5196 213.269 31.5243C212.901 31.5182 212.537 31.6071 212.213 31.7823C211.908 31.9482 211.655 32.1965 211.484 32.4987C211.312 32.8183 211.222 33.1756 211.222 33.5386C211.222 33.9015 211.312 34.2588 211.484 34.5784C211.655 34.8806 211.908 35.1288 212.213 35.2947C212.537 35.4699 212.901 35.5588 213.269 35.5526C213.558 35.5572 213.845 35.4987 214.109 35.3814C214.374 35.2641 214.61 35.0907 214.8 34.8732L215.488 35.5281C215.22 35.8398 214.882 36.0838 214.501 36.2404C214.092 36.4078 213.654 36.4913 213.212 36.486C212.665 36.4939 212.126 36.3629 211.644 36.1054Z" fill="#252552"/>
<path d="M220.81 35.5117V36.4042H216.511V30.6729H220.819V31.5653H217.575V33.0555H220.343V33.9315H217.575V35.5117H220.81Z" fill="#252552"/>
<defs>
<linearGradient id="paint0_linear_7_3" x1="34.9032" y1="21.8327" x2="49.4645" y2="21.8327" gradientUnits="userSpaceOnUse">
<stop offset="0.18154" stop-color="#DBDBDB"/>
<stop offset="0.19028" stop-color="#D9D9D9"/>
<stop offset="0.53107" stop-color="#9C9C9C"/>
<stop offset="0.69308" stop-color="#848484"/>
</linearGradient>
<linearGradient id="paint1_linear_7_3" x1="15.6529" y1="26.1671" x2="1.09153" y2="26.1671" gradientUnits="userSpaceOnUse">
<stop offset="0.30126" stop-color="#DBDBDB"/>
<stop offset="0.31321" stop-color="#D9D9D9"/>
<stop offset="0.77871" stop-color="#9C9C9C"/>
<stop offset="1" stop-color="#848484"/>
</linearGradient>
</defs>
</svg>
